<svg width="56" height="56" viewBox="0 0 56 56" fill="none" xmlns="http://www.w3.org/2000/svg">
<rect width="56" height="56" rx="28" fill="#FEEDCD"/>
<g clip-path="url(#clip0_4895_12491)">
<path d="M39.2821 35.1982L33.0988 29.0149H31.9438L28.9805 31.9782V33.1332L35.1638 39.3166C35.6188 39.7716 36.3538 39.7716 36.8088 39.3166L39.2821 36.8432C39.7371 36.3999 39.7371 35.6532 39.2821 35.1982ZM35.9805 36.8549L31.0338 31.9082L31.8621 31.0799L36.8088 36.0266L35.9805 36.8549Z" fill="#C98503"/>
<path d="M34.2297 25.8884L35.8747 24.2434L38.348 26.7167C39.713 25.3517 39.713 23.1351 38.348 21.7701L34.218 17.6401L32.573 19.2851V15.9951L31.7563 15.1667L27.6263 19.2967L28.4547 20.1251H31.7563L30.1113 21.7701L31.348 23.0067L27.9763 26.3784L23.158 21.5601V19.9034L19.6347 16.3801L16.333 19.6817L19.868 23.2167H21.513L26.3313 28.0351L25.3397 29.0267H22.8663L16.683 35.2101C16.228 35.6651 16.228 36.4001 16.683 36.8551L19.1563 39.3284C19.6113 39.7834 20.3463 39.7834 20.8013 39.3284L26.9847 33.1451V30.6717L32.993 24.6634L34.2297 25.8884ZM24.9197 31.8967L19.973 36.8434L19.1447 36.0151L24.0913 31.0684L24.9197 31.8967Z" fill="#C98503"/>
</g>
<defs>
<clipPath id="clip0_4895_12491">
<rect width="28" height="28" fill="white" transform="translate(14 14)"/>
</clipPath>
</defs>
</svg>
